<mxfile host="app.diagrams.net" agent="Mozilla/5.0 (Windows NT 10.0; Win64; x64) AppleWebKit/537.36 (KHTML, like Gecko) Chrome/131.0.0.0 Safari/537.36" version="26.0.3">
  <diagram name="Strona-1" id="fgU5ulpv1b7WvcS9dqAW">
    <mxGraphModel dx="1509" dy="813" grid="1" gridSize="10" guides="1" tooltips="1" connect="1" arrows="1" fold="1" page="1" pageScale="1" pageWidth="827" pageHeight="1169" math="0" shadow="0">
      <root>
        <mxCell id="0" />
        <mxCell id="1" parent="0" />
        <mxCell id="whcsbTW-i5qFt0smelnw-29" style="edgeStyle=orthogonalEdgeStyle;rounded=0;orthogonalLoop=1;jettySize=auto;html=1;exitX=0.25;exitY=1;exitDx=0;exitDy=0;entryX=0.25;entryY=0;entryDx=0;entryDy=0;fillColor=#d5e8d4;strokeColor=#82b366;strokeWidth=2;" parent="1" source="whcsbTW-i5qFt0smelnw-1" target="whcsbTW-i5qFt0smelnw-2" edge="1">
          <mxGeometry relative="1" as="geometry" />
        </mxCell>
        <mxCell id="whcsbTW-i5qFt0smelnw-1" value="IN Rejestracja" style="rounded=0;whiteSpace=wrap;html=1;fillColor=#d5e8d4;strokeColor=#82b366;" parent="1" vertex="1">
          <mxGeometry x="110" y="90" width="120" height="60" as="geometry" />
        </mxCell>
        <mxCell id="whcsbTW-i5qFt0smelnw-16" style="edgeStyle=orthogonalEdgeStyle;rounded=0;orthogonalLoop=1;jettySize=auto;html=1;exitX=0.5;exitY=1;exitDx=0;exitDy=0;entryX=0;entryY=0.5;entryDx=0;entryDy=0;strokeWidth=2;fillColor=#ffe6cc;strokeColor=#d79b00;" parent="1" source="whcsbTW-i5qFt0smelnw-2" target="whcsbTW-i5qFt0smelnw-5" edge="1">
          <mxGeometry relative="1" as="geometry">
            <Array as="points">
              <mxPoint x="170" y="290" />
            </Array>
          </mxGeometry>
        </mxCell>
        <mxCell id="whcsbTW-i5qFt0smelnw-2" value="Rejestracja" style="rounded=0;whiteSpace=wrap;html=1;fillColor=#f8cecc;strokeColor=#b85450;" parent="1" vertex="1">
          <mxGeometry x="110" y="200" width="120" height="60" as="geometry" />
        </mxCell>
        <mxCell id="whcsbTW-i5qFt0smelnw-3" value="" style="endArrow=classic;html=1;rounded=0;exitX=0.5;exitY=1;exitDx=0;exitDy=0;entryX=0.5;entryY=0;entryDx=0;entryDy=0;fillColor=#ffe6cc;strokeColor=#d79b00;strokeWidth=2;" parent="1" source="whcsbTW-i5qFt0smelnw-1" target="whcsbTW-i5qFt0smelnw-2" edge="1">
          <mxGeometry width="50" height="50" relative="1" as="geometry">
            <mxPoint x="390" y="420" as="sourcePoint" />
            <mxPoint x="440" y="370" as="targetPoint" />
          </mxGeometry>
        </mxCell>
        <mxCell id="whcsbTW-i5qFt0smelnw-4" value="IN Izba przyjęć" style="rounded=0;whiteSpace=wrap;html=1;fillColor=#d5e8d4;strokeColor=#82b366;" parent="1" vertex="1">
          <mxGeometry x="280" y="90" width="120" height="60" as="geometry" />
        </mxCell>
        <mxCell id="whcsbTW-i5qFt0smelnw-19" style="edgeStyle=orthogonalEdgeStyle;rounded=0;orthogonalLoop=1;jettySize=auto;html=1;exitX=1;exitY=0.75;exitDx=0;exitDy=0;entryX=0;entryY=0.5;entryDx=0;entryDy=0;strokeWidth=2;fillColor=#ffe6cc;strokeColor=#d79b00;" parent="1" source="whcsbTW-i5qFt0smelnw-5" target="whcsbTW-i5qFt0smelnw-7" edge="1">
          <mxGeometry relative="1" as="geometry" />
        </mxCell>
        <mxCell id="whcsbTW-i5qFt0smelnw-20" style="edgeStyle=orthogonalEdgeStyle;rounded=0;orthogonalLoop=1;jettySize=auto;html=1;exitX=0.75;exitY=1;exitDx=0;exitDy=0;entryX=0.5;entryY=0;entryDx=0;entryDy=0;strokeWidth=2;fillColor=#ffe6cc;strokeColor=#d79b00;" parent="1" source="whcsbTW-i5qFt0smelnw-5" target="whcsbTW-i5qFt0smelnw-8" edge="1">
          <mxGeometry relative="1" as="geometry" />
        </mxCell>
        <mxCell id="whcsbTW-i5qFt0smelnw-21" style="edgeStyle=orthogonalEdgeStyle;rounded=0;orthogonalLoop=1;jettySize=auto;html=1;exitX=0.5;exitY=1;exitDx=0;exitDy=0;entryX=0.5;entryY=0;entryDx=0;entryDy=0;strokeWidth=2;fillColor=#f8cecc;strokeColor=#b85450;" parent="1" source="whcsbTW-i5qFt0smelnw-5" target="whcsbTW-i5qFt0smelnw-9" edge="1">
          <mxGeometry relative="1" as="geometry" />
        </mxCell>
        <mxCell id="whcsbTW-i5qFt0smelnw-22" style="edgeStyle=orthogonalEdgeStyle;rounded=0;orthogonalLoop=1;jettySize=auto;html=1;exitX=0.25;exitY=1;exitDx=0;exitDy=0;entryX=0.25;entryY=0;entryDx=0;entryDy=0;strokeWidth=2;fillColor=#d5e8d4;strokeColor=#82b366;" parent="1" source="whcsbTW-i5qFt0smelnw-5" target="whcsbTW-i5qFt0smelnw-9" edge="1">
          <mxGeometry relative="1" as="geometry" />
        </mxCell>
        <mxCell id="whcsbTW-i5qFt0smelnw-5" value="Izba przyjęcia" style="rounded=0;whiteSpace=wrap;html=1;fillColor=#e1d5e7;strokeColor=#9673a6;" parent="1" vertex="1">
          <mxGeometry x="280" y="260" width="120" height="60" as="geometry" />
        </mxCell>
        <mxCell id="whcsbTW-i5qFt0smelnw-6" value="OUT Dom" style="rounded=0;whiteSpace=wrap;html=1;fillColor=#bac8d3;strokeColor=#23445d;" parent="1" vertex="1">
          <mxGeometry x="600" y="245" width="120" height="60" as="geometry" />
        </mxCell>
        <mxCell id="whcsbTW-i5qFt0smelnw-7" value="OUT Inny oddział" style="rounded=0;whiteSpace=wrap;html=1;fillColor=#bac8d3;strokeColor=#23445d;" parent="1" vertex="1">
          <mxGeometry x="600" y="320" width="120" height="60" as="geometry" />
        </mxCell>
        <mxCell id="whcsbTW-i5qFt0smelnw-23" style="edgeStyle=orthogonalEdgeStyle;rounded=0;orthogonalLoop=1;jettySize=auto;html=1;exitX=0.5;exitY=1;exitDx=0;exitDy=0;entryX=1;entryY=0.5;entryDx=0;entryDy=0;strokeWidth=2;fillColor=#ffe6cc;strokeColor=#d79b00;" parent="1" source="whcsbTW-i5qFt0smelnw-8" target="whcsbTW-i5qFt0smelnw-9" edge="1">
          <mxGeometry relative="1" as="geometry" />
        </mxCell>
        <mxCell id="sOwrhF51wG5BLlXzD2gl-3" style="edgeStyle=orthogonalEdgeStyle;rounded=0;orthogonalLoop=1;jettySize=auto;html=1;strokeWidth=2;fillColor=#ffe6cc;strokeColor=#d79b00;" edge="1" parent="1" source="whcsbTW-i5qFt0smelnw-8">
          <mxGeometry relative="1" as="geometry">
            <mxPoint x="570" y="480" as="targetPoint" />
          </mxGeometry>
        </mxCell>
        <mxCell id="whcsbTW-i5qFt0smelnw-8" value="Odział gineklogiczny" style="rounded=0;whiteSpace=wrap;html=1;fillColor=#f8cecc;strokeColor=#b85450;" parent="1" vertex="1">
          <mxGeometry x="414" y="450" width="120" height="60" as="geometry" />
        </mxCell>
        <mxCell id="whcsbTW-i5qFt0smelnw-24" style="edgeStyle=orthogonalEdgeStyle;rounded=0;orthogonalLoop=1;jettySize=auto;html=1;exitX=0.25;exitY=1;exitDx=0;exitDy=0;entryX=0.25;entryY=0;entryDx=0;entryDy=0;fillColor=#f8cecc;strokeColor=#b85450;strokeWidth=2;" parent="1" source="whcsbTW-i5qFt0smelnw-9" target="whcsbTW-i5qFt0smelnw-11" edge="1">
          <mxGeometry relative="1" as="geometry" />
        </mxCell>
        <mxCell id="whcsbTW-i5qFt0smelnw-25" style="edgeStyle=orthogonalEdgeStyle;rounded=0;orthogonalLoop=1;jettySize=auto;html=1;exitX=0.5;exitY=1;exitDx=0;exitDy=0;entryX=0.5;entryY=0;entryDx=0;entryDy=0;strokeWidth=2;fillColor=#d5e8d4;strokeColor=#82b366;" parent="1" source="whcsbTW-i5qFt0smelnw-9" target="whcsbTW-i5qFt0smelnw-10" edge="1">
          <mxGeometry relative="1" as="geometry" />
        </mxCell>
        <mxCell id="whcsbTW-i5qFt0smelnw-9" value="Porodówka" style="rounded=0;whiteSpace=wrap;html=1;fillColor=#e1d5e7;strokeColor=#9673a6;" parent="1" vertex="1">
          <mxGeometry x="280" y="520" width="120" height="60" as="geometry" />
        </mxCell>
        <mxCell id="whcsbTW-i5qFt0smelnw-28" style="edgeStyle=orthogonalEdgeStyle;rounded=0;orthogonalLoop=1;jettySize=auto;html=1;exitX=0.5;exitY=1;exitDx=0;exitDy=0;entryX=0.5;entryY=0;entryDx=0;entryDy=0;strokeWidth=2;fillColor=#d5e8d4;strokeColor=#82b366;" parent="1" source="whcsbTW-i5qFt0smelnw-10" target="whcsbTW-i5qFt0smelnw-12" edge="1">
          <mxGeometry relative="1" as="geometry" />
        </mxCell>
        <mxCell id="whcsbTW-i5qFt0smelnw-33" style="edgeStyle=orthogonalEdgeStyle;rounded=0;orthogonalLoop=1;jettySize=auto;html=1;exitX=0.75;exitY=1;exitDx=0;exitDy=0;strokeWidth=2;fillColor=#ffe6cc;strokeColor=#d79b00;" parent="1" source="whcsbTW-i5qFt0smelnw-10" edge="1">
          <mxGeometry relative="1" as="geometry">
            <mxPoint x="370" y="730" as="targetPoint" />
          </mxGeometry>
        </mxCell>
        <mxCell id="whcsbTW-i5qFt0smelnw-54" style="edgeStyle=orthogonalEdgeStyle;rounded=0;orthogonalLoop=1;jettySize=auto;html=1;exitX=0.25;exitY=1;exitDx=0;exitDy=0;entryX=0.75;entryY=0;entryDx=0;entryDy=0;strokeWidth=2;fillColor=#ffe6cc;strokeColor=#d79b00;" parent="1" source="whcsbTW-i5qFt0smelnw-10" target="whcsbTW-i5qFt0smelnw-13" edge="1">
          <mxGeometry relative="1" as="geometry" />
        </mxCell>
        <mxCell id="whcsbTW-i5qFt0smelnw-10" value="Sala poporodowa" style="rounded=0;whiteSpace=wrap;html=1;fillColor=#f8cecc;strokeColor=#b85450;" parent="1" vertex="1">
          <mxGeometry x="280" y="640" width="120" height="60" as="geometry" />
        </mxCell>
        <mxCell id="whcsbTW-i5qFt0smelnw-26" style="edgeStyle=orthogonalEdgeStyle;rounded=0;orthogonalLoop=1;jettySize=auto;html=1;entryX=0.25;entryY=0;entryDx=0;entryDy=0;strokeWidth=2;fillColor=#ffe6cc;strokeColor=#d79b00;" parent="1" target="whcsbTW-i5qFt0smelnw-13" edge="1">
          <mxGeometry relative="1" as="geometry">
            <mxPoint x="140" y="730" as="sourcePoint" />
          </mxGeometry>
        </mxCell>
        <mxCell id="whcsbTW-i5qFt0smelnw-36" style="edgeStyle=orthogonalEdgeStyle;rounded=0;orthogonalLoop=1;jettySize=auto;html=1;exitX=0.25;exitY=1;exitDx=0;exitDy=0;strokeWidth=2;fillColor=#f8cecc;strokeColor=#b85450;" parent="1" source="whcsbTW-i5qFt0smelnw-11" edge="1">
          <mxGeometry relative="1" as="geometry">
            <mxPoint x="140" y="730" as="targetPoint" />
          </mxGeometry>
        </mxCell>
        <mxCell id="whcsbTW-i5qFt0smelnw-39" style="edgeStyle=orthogonalEdgeStyle;rounded=0;orthogonalLoop=1;jettySize=auto;html=1;exitX=1;exitY=0.5;exitDx=0;exitDy=0;strokeWidth=2;fillColor=#f8cecc;strokeColor=#b85450;" parent="1" source="whcsbTW-i5qFt0smelnw-11" edge="1">
          <mxGeometry relative="1" as="geometry">
            <mxPoint x="260" y="670" as="targetPoint" />
          </mxGeometry>
        </mxCell>
        <mxCell id="whcsbTW-i5qFt0smelnw-11" value="OIOM" style="rounded=0;whiteSpace=wrap;html=1;fillColor=#f8cecc;strokeColor=#b85450;" parent="1" vertex="1">
          <mxGeometry x="110" y="640" width="120" height="60" as="geometry" />
        </mxCell>
        <mxCell id="whcsbTW-i5qFt0smelnw-12" value="OUT DOM" style="rounded=0;whiteSpace=wrap;html=1;fillColor=#bac8d3;strokeColor=#23445d;" parent="1" vertex="1">
          <mxGeometry x="280" y="760" width="120" height="60" as="geometry" />
        </mxCell>
        <mxCell id="whcsbTW-i5qFt0smelnw-13" value="OUT Inny oddział" style="rounded=0;whiteSpace=wrap;html=1;fillColor=#bac8d3;strokeColor=#23445d;" parent="1" vertex="1">
          <mxGeometry x="110" y="760" width="120" height="60" as="geometry" />
        </mxCell>
        <mxCell id="whcsbTW-i5qFt0smelnw-14" value="" style="endArrow=classic;html=1;rounded=0;exitX=0.5;exitY=1;exitDx=0;exitDy=0;entryX=0.5;entryY=0;entryDx=0;entryDy=0;strokeWidth=2;fillColor=#f8cecc;strokeColor=#b85450;" parent="1" source="whcsbTW-i5qFt0smelnw-4" target="whcsbTW-i5qFt0smelnw-5" edge="1">
          <mxGeometry width="50" height="50" relative="1" as="geometry">
            <mxPoint x="390" y="420" as="sourcePoint" />
            <mxPoint x="440" y="370" as="targetPoint" />
          </mxGeometry>
        </mxCell>
        <mxCell id="whcsbTW-i5qFt0smelnw-15" value="" style="endArrow=classic;html=1;rounded=0;exitX=0.25;exitY=1;exitDx=0;exitDy=0;entryX=0;entryY=0.75;entryDx=0;entryDy=0;fillColor=#d5e8d4;strokeColor=#82b366;strokeWidth=2;" parent="1" source="whcsbTW-i5qFt0smelnw-2" target="whcsbTW-i5qFt0smelnw-5" edge="1">
          <mxGeometry width="50" height="50" relative="1" as="geometry">
            <mxPoint x="390" y="420" as="sourcePoint" />
            <mxPoint x="140" y="320" as="targetPoint" />
            <Array as="points">
              <mxPoint x="140" y="305" />
            </Array>
          </mxGeometry>
        </mxCell>
        <mxCell id="whcsbTW-i5qFt0smelnw-31" value="" style="endArrow=classic;html=1;rounded=0;strokeWidth=2;fillColor=#d5e8d4;strokeColor=#82b366;" parent="1" edge="1">
          <mxGeometry width="50" height="50" relative="1" as="geometry">
            <mxPoint x="260" y="670" as="sourcePoint" />
            <mxPoint x="280" y="670" as="targetPoint" />
          </mxGeometry>
        </mxCell>
        <mxCell id="whcsbTW-i5qFt0smelnw-32" value="" style="endArrow=classic;html=1;rounded=0;exitX=0.75;exitY=1;exitDx=0;exitDy=0;entryX=0.75;entryY=0;entryDx=0;entryDy=0;strokeWidth=2;fillColor=#ffe6cc;strokeColor=#d79b00;" parent="1" source="whcsbTW-i5qFt0smelnw-9" target="whcsbTW-i5qFt0smelnw-10" edge="1">
          <mxGeometry width="50" height="50" relative="1" as="geometry">
            <mxPoint x="390" y="620" as="sourcePoint" />
            <mxPoint x="370" y="630" as="targetPoint" />
          </mxGeometry>
        </mxCell>
        <mxCell id="whcsbTW-i5qFt0smelnw-43" style="edgeStyle=orthogonalEdgeStyle;rounded=0;orthogonalLoop=1;jettySize=auto;html=1;exitX=1;exitY=0.25;exitDx=0;exitDy=0;strokeWidth=2;fillColor=#d5e8d4;strokeColor=#82b366;entryX=0;entryY=0.5;entryDx=0;entryDy=0;" parent="1" source="whcsbTW-i5qFt0smelnw-5" edge="1" target="whcsbTW-i5qFt0smelnw-6">
          <mxGeometry relative="1" as="geometry">
            <mxPoint x="570" y="270" as="targetPoint" />
          </mxGeometry>
        </mxCell>
        <mxCell id="whcsbTW-i5qFt0smelnw-44" value="" style="endArrow=classic;html=1;rounded=0;entryX=0.75;entryY=0;entryDx=0;entryDy=0;strokeWidth=2;fillColor=#d5e8d4;strokeColor=#82b366;" parent="1" target="whcsbTW-i5qFt0smelnw-12" edge="1">
          <mxGeometry width="50" height="50" relative="1" as="geometry">
            <mxPoint x="370" y="730" as="sourcePoint" />
            <mxPoint x="850" y="420" as="targetPoint" />
          </mxGeometry>
        </mxCell>
        <mxCell id="whcsbTW-i5qFt0smelnw-47" value="FIFO" style="text;html=1;align=center;verticalAlign=middle;resizable=0;points=[];autosize=1;strokeColor=none;fillColor=none;" parent="1" vertex="1">
          <mxGeometry x="180" y="200" width="50" height="30" as="geometry" />
        </mxCell>
        <mxCell id="whcsbTW-i5qFt0smelnw-48" value="FIFO" style="text;html=1;align=center;verticalAlign=middle;resizable=0;points=[];autosize=1;strokeColor=none;fillColor=none;" parent="1" vertex="1">
          <mxGeometry x="350" y="640" width="50" height="30" as="geometry" />
        </mxCell>
        <mxCell id="whcsbTW-i5qFt0smelnw-49" value="LIFO + PR" style="text;html=1;align=center;verticalAlign=middle;resizable=0;points=[];autosize=1;strokeColor=none;fillColor=none;" parent="1" vertex="1">
          <mxGeometry x="320" y="520" width="80" height="30" as="geometry" />
        </mxCell>
        <mxCell id="whcsbTW-i5qFt0smelnw-51" value="LIFO + PR" style="text;html=1;align=center;verticalAlign=middle;resizable=0;points=[];autosize=1;strokeColor=none;fillColor=none;" parent="1" vertex="1">
          <mxGeometry x="320" y="260" width="80" height="30" as="geometry" />
        </mxCell>
        <mxCell id="whcsbTW-i5qFt0smelnw-52" value="FIFO" style="text;html=1;align=center;verticalAlign=middle;resizable=0;points=[];autosize=1;strokeColor=none;fillColor=none;" parent="1" vertex="1">
          <mxGeometry x="489" y="450" width="50" height="30" as="geometry" />
        </mxCell>
        <mxCell id="whcsbTW-i5qFt0smelnw-53" value="FIFO" style="text;html=1;align=center;verticalAlign=middle;resizable=0;points=[];autosize=1;strokeColor=none;fillColor=none;" parent="1" vertex="1">
          <mxGeometry x="185" y="640" width="50" height="30" as="geometry" />
        </mxCell>
        <mxCell id="sOwrhF51wG5BLlXzD2gl-1" value="OUT Dom" style="rounded=0;whiteSpace=wrap;html=1;fillColor=#bac8d3;strokeColor=#23445d;" vertex="1" parent="1">
          <mxGeometry x="600" y="450" width="120" height="60" as="geometry" />
        </mxCell>
        <mxCell id="sOwrhF51wG5BLlXzD2gl-5" value="" style="endArrow=classic;html=1;rounded=0;entryX=0;entryY=0.5;entryDx=0;entryDy=0;strokeWidth=2;fillColor=#d5e8d4;strokeColor=#82b366;" edge="1" parent="1" target="sOwrhF51wG5BLlXzD2gl-1">
          <mxGeometry width="50" height="50" relative="1" as="geometry">
            <mxPoint x="570" y="480" as="sourcePoint" />
            <mxPoint x="510" y="520" as="targetPoint" />
          </mxGeometry>
        </mxCell>
        <mxCell id="sOwrhF51wG5BLlXzD2gl-6" value="" style="endArrow=classic;html=1;rounded=0;entryX=0.629;entryY=-0.033;entryDx=0;entryDy=0;entryPerimeter=0;fillColor=#ffe6cc;strokeColor=#d79b00;strokeWidth=2;" edge="1" parent="1" target="whcsbTW-i5qFt0smelnw-49">
          <mxGeometry width="50" height="50" relative="1" as="geometry">
            <mxPoint x="370" y="380" as="sourcePoint" />
            <mxPoint x="534" y="560" as="targetPoint" />
          </mxGeometry>
        </mxCell>
        <mxCell id="sOwrhF51wG5BLlXzD2gl-7" value="0.4" style="text;html=1;align=center;verticalAlign=middle;resizable=0;points=[];autosize=1;strokeColor=none;fillColor=none;" vertex="1" parent="1">
          <mxGeometry x="350" y="420" width="40" height="30" as="geometry" />
        </mxCell>
        <mxCell id="sOwrhF51wG5BLlXzD2gl-10" value="0.2" style="text;html=1;align=center;verticalAlign=middle;resizable=0;points=[];autosize=1;strokeColor=none;fillColor=none;" vertex="1" parent="1">
          <mxGeometry x="425" y="290" width="40" height="30" as="geometry" />
        </mxCell>
        <mxCell id="sOwrhF51wG5BLlXzD2gl-12" value="0.4" style="text;html=1;align=center;verticalAlign=middle;resizable=0;points=[];autosize=1;strokeColor=none;fillColor=none;" vertex="1" parent="1">
          <mxGeometry x="405" y="370" width="40" height="30" as="geometry" />
        </mxCell>
        <mxCell id="sOwrhF51wG5BLlXzD2gl-13" value="0.9" style="text;html=1;align=center;verticalAlign=middle;resizable=0;points=[];autosize=1;strokeColor=none;fillColor=none;" vertex="1" parent="1">
          <mxGeometry x="425" y="535" width="40" height="30" as="geometry" />
        </mxCell>
        <mxCell id="sOwrhF51wG5BLlXzD2gl-14" value="0.1" style="text;html=1;align=center;verticalAlign=middle;resizable=0;points=[];autosize=1;strokeColor=none;fillColor=none;" vertex="1" parent="1">
          <mxGeometry x="525" y="465" width="40" height="30" as="geometry" />
        </mxCell>
        <mxCell id="sOwrhF51wG5BLlXzD2gl-15" value="1" style="text;html=1;align=center;verticalAlign=middle;resizable=0;points=[];autosize=1;strokeColor=none;fillColor=none;" vertex="1" parent="1">
          <mxGeometry x="290" y="400" width="30" height="30" as="geometry" />
        </mxCell>
        <mxCell id="sOwrhF51wG5BLlXzD2gl-16" value="1" style="text;html=1;align=center;verticalAlign=middle;resizable=0;points=[];autosize=1;strokeColor=none;fillColor=none;" vertex="1" parent="1">
          <mxGeometry x="320" y="400" width="30" height="30" as="geometry" />
        </mxCell>
        <mxCell id="sOwrhF51wG5BLlXzD2gl-25" style="edgeStyle=orthogonalEdgeStyle;rounded=0;orthogonalLoop=1;jettySize=auto;html=1;exitX=0.25;exitY=1;exitDx=0;exitDy=0;fillColor=#f8cecc;strokeColor=#b85450;strokeWidth=2;" edge="1" parent="1" source="sOwrhF51wG5BLlXzD2gl-19">
          <mxGeometry relative="1" as="geometry">
            <mxPoint x="1091" y="580" as="targetPoint" />
          </mxGeometry>
        </mxCell>
        <mxCell id="sOwrhF51wG5BLlXzD2gl-39" style="edgeStyle=orthogonalEdgeStyle;rounded=0;orthogonalLoop=1;jettySize=auto;html=1;exitX=0.5;exitY=1;exitDx=0;exitDy=0;fillColor=#ffe6cc;strokeColor=#d79b00;strokeWidth=2;" edge="1" parent="1" source="sOwrhF51wG5BLlXzD2gl-19">
          <mxGeometry relative="1" as="geometry">
            <mxPoint x="1141" y="560" as="targetPoint" />
          </mxGeometry>
        </mxCell>
        <mxCell id="sOwrhF51wG5BLlXzD2gl-40" style="edgeStyle=orthogonalEdgeStyle;rounded=0;orthogonalLoop=1;jettySize=auto;html=1;exitX=0.75;exitY=1;exitDx=0;exitDy=0;fillColor=#d5e8d4;strokeColor=#82b366;strokeWidth=2;" edge="1" parent="1" source="sOwrhF51wG5BLlXzD2gl-19">
          <mxGeometry relative="1" as="geometry">
            <mxPoint x="1190.888888888889" y="530" as="targetPoint" />
          </mxGeometry>
        </mxCell>
        <mxCell id="sOwrhF51wG5BLlXzD2gl-19" value="Porodówka" style="rounded=0;whiteSpace=wrap;html=1;fillColor=#e1d5e7;strokeColor=#9673a6;" vertex="1" parent="1">
          <mxGeometry x="1041" y="410" width="200" height="100" as="geometry" />
        </mxCell>
        <mxCell id="sOwrhF51wG5BLlXzD2gl-55" value="" style="edgeStyle=orthogonalEdgeStyle;rounded=0;orthogonalLoop=1;jettySize=auto;html=1;fillColor=#f8cecc;strokeColor=#b85450;strokeWidth=2;" edge="1" parent="1" source="sOwrhF51wG5BLlXzD2gl-20">
          <mxGeometry relative="1" as="geometry">
            <mxPoint x="870" y="750" as="targetPoint" />
          </mxGeometry>
        </mxCell>
        <mxCell id="sOwrhF51wG5BLlXzD2gl-58" style="edgeStyle=orthogonalEdgeStyle;rounded=0;orthogonalLoop=1;jettySize=auto;html=1;exitX=1;exitY=0.5;exitDx=0;exitDy=0;fillColor=#f8cecc;strokeColor=#b85450;strokeWidth=2;" edge="1" parent="1" source="sOwrhF51wG5BLlXzD2gl-20">
          <mxGeometry relative="1" as="geometry">
            <mxPoint x="1000" y="650" as="targetPoint" />
          </mxGeometry>
        </mxCell>
        <mxCell id="sOwrhF51wG5BLlXzD2gl-20" value="OIOM" style="rounded=0;whiteSpace=wrap;html=1;fillColor=#f8cecc;strokeColor=#b85450;" vertex="1" parent="1">
          <mxGeometry x="770" y="600" width="200" height="100" as="geometry" />
        </mxCell>
        <mxCell id="sOwrhF51wG5BLlXzD2gl-21" value="OUT Inny oddział" style="rounded=0;whiteSpace=wrap;html=1;fillColor=#bac8d3;strokeColor=#23445d;" vertex="1" parent="1">
          <mxGeometry x="770" y="800" width="200" height="100" as="geometry" />
        </mxCell>
        <mxCell id="sOwrhF51wG5BLlXzD2gl-62" style="edgeStyle=orthogonalEdgeStyle;rounded=0;orthogonalLoop=1;jettySize=auto;html=1;exitX=0.25;exitY=1;exitDx=0;exitDy=0;entryX=0.75;entryY=0;entryDx=0;entryDy=0;fillColor=#ffe6cc;strokeColor=#d79b00;strokeWidth=2;" edge="1" parent="1" source="sOwrhF51wG5BLlXzD2gl-23" target="sOwrhF51wG5BLlXzD2gl-21">
          <mxGeometry relative="1" as="geometry" />
        </mxCell>
        <mxCell id="sOwrhF51wG5BLlXzD2gl-63" style="edgeStyle=orthogonalEdgeStyle;rounded=0;orthogonalLoop=1;jettySize=auto;html=1;exitX=0.5;exitY=1;exitDx=0;exitDy=0;strokeWidth=2;fillColor=#d5e8d4;strokeColor=#82b366;" edge="1" parent="1" source="sOwrhF51wG5BLlXzD2gl-23" target="sOwrhF51wG5BLlXzD2gl-24">
          <mxGeometry relative="1" as="geometry" />
        </mxCell>
        <mxCell id="sOwrhF51wG5BLlXzD2gl-65" style="edgeStyle=orthogonalEdgeStyle;rounded=0;orthogonalLoop=1;jettySize=auto;html=1;exitX=0.75;exitY=1;exitDx=0;exitDy=0;fillColor=#ffe6cc;strokeColor=#d79b00;strokeWidth=2;" edge="1" parent="1" source="sOwrhF51wG5BLlXzD2gl-23">
          <mxGeometry relative="1" as="geometry">
            <mxPoint x="1190.923076923077" y="750" as="targetPoint" />
          </mxGeometry>
        </mxCell>
        <mxCell id="sOwrhF51wG5BLlXzD2gl-23" value="Sala poporodowa" style="rounded=0;whiteSpace=wrap;html=1;fillColor=#f8cecc;strokeColor=#b85450;" vertex="1" parent="1">
          <mxGeometry x="1041" y="600" width="200" height="100" as="geometry" />
        </mxCell>
        <mxCell id="sOwrhF51wG5BLlXzD2gl-24" value="OUT DOM" style="rounded=0;whiteSpace=wrap;html=1;fillColor=#bac8d3;strokeColor=#23445d;" vertex="1" parent="1">
          <mxGeometry x="1041" y="800" width="200" height="100" as="geometry" />
        </mxCell>
        <mxCell id="sOwrhF51wG5BLlXzD2gl-31" value="" style="endArrow=classic;html=1;rounded=0;fillColor=#f8cecc;strokeColor=#b85450;entryX=0.75;entryY=0;entryDx=0;entryDy=0;strokeWidth=2;" edge="1" parent="1" target="sOwrhF51wG5BLlXzD2gl-20">
          <mxGeometry width="50" height="50" relative="1" as="geometry">
            <mxPoint x="1090" y="580" as="sourcePoint" />
            <mxPoint x="890" y="580" as="targetPoint" />
            <Array as="points">
              <mxPoint x="920" y="580" />
            </Array>
          </mxGeometry>
        </mxCell>
        <mxCell id="sOwrhF51wG5BLlXzD2gl-32" value="" style="endArrow=classic;html=1;rounded=0;entryX=0.25;entryY=0;entryDx=0;entryDy=0;fillColor=#ffe6cc;strokeColor=#d79b00;strokeWidth=2;" edge="1" parent="1" target="sOwrhF51wG5BLlXzD2gl-23">
          <mxGeometry width="50" height="50" relative="1" as="geometry">
            <mxPoint x="1091" y="580" as="sourcePoint" />
            <mxPoint x="1130" y="560" as="targetPoint" />
          </mxGeometry>
        </mxCell>
        <mxCell id="sOwrhF51wG5BLlXzD2gl-33" value="" style="endArrow=classic;html=1;rounded=0;fillColor=#d5e8d4;strokeColor=#82b366;strokeWidth=2;exitX=0.504;exitY=-0.005;exitDx=0;exitDy=0;exitPerimeter=0;" edge="1" parent="1" source="sOwrhF51wG5BLlXzD2gl-51">
          <mxGeometry width="50" height="50" relative="1" as="geometry">
            <mxPoint x="1090" y="580" as="sourcePoint" />
            <mxPoint x="1120" y="600" as="targetPoint" />
            <Array as="points">
              <mxPoint x="1090" y="580" />
              <mxPoint x="1100" y="580" />
              <mxPoint x="1120" y="580" />
            </Array>
          </mxGeometry>
        </mxCell>
        <mxCell id="sOwrhF51wG5BLlXzD2gl-34" value="" style="endArrow=classic;html=1;rounded=0;fillColor=#f8cecc;strokeColor=#b85450;entryX=0.5;entryY=0;entryDx=0;entryDy=0;strokeWidth=2;" edge="1" parent="1" target="sOwrhF51wG5BLlXzD2gl-20">
          <mxGeometry width="50" height="50" relative="1" as="geometry">
            <mxPoint x="1140" y="560" as="sourcePoint" />
            <mxPoint x="890" y="560" as="targetPoint" />
            <Array as="points">
              <mxPoint x="870" y="560" />
            </Array>
          </mxGeometry>
        </mxCell>
        <mxCell id="sOwrhF51wG5BLlXzD2gl-35" value="" style="endArrow=classic;html=1;rounded=0;entryX=0.5;entryY=0;entryDx=0;entryDy=0;fillColor=#ffe6cc;strokeColor=#d79b00;strokeWidth=2;" edge="1" parent="1">
          <mxGeometry width="50" height="50" relative="1" as="geometry">
            <mxPoint x="1141" y="560" as="sourcePoint" />
            <mxPoint x="1141" y="600" as="targetPoint" />
          </mxGeometry>
        </mxCell>
        <mxCell id="sOwrhF51wG5BLlXzD2gl-36" value="" style="endArrow=classic;html=1;rounded=0;fillColor=#d5e8d4;strokeColor=#82b366;entryX=0.647;entryY=0;entryDx=0;entryDy=0;entryPerimeter=0;strokeWidth=2;" edge="1" parent="1" target="sOwrhF51wG5BLlXzD2gl-23">
          <mxGeometry width="50" height="50" relative="1" as="geometry">
            <mxPoint x="1140" y="560" as="sourcePoint" />
            <mxPoint x="1170" y="597" as="targetPoint" />
            <Array as="points">
              <mxPoint x="1150" y="560" />
              <mxPoint x="1160" y="560" />
              <mxPoint x="1170" y="560" />
            </Array>
          </mxGeometry>
        </mxCell>
        <mxCell id="sOwrhF51wG5BLlXzD2gl-38" value="" style="endArrow=classic;html=1;rounded=0;fillColor=#f8cecc;strokeColor=#b85450;entryX=0.25;entryY=0;entryDx=0;entryDy=0;strokeWidth=2;" edge="1" parent="1" target="sOwrhF51wG5BLlXzD2gl-20">
          <mxGeometry width="50" height="50" relative="1" as="geometry">
            <mxPoint x="1190" y="530" as="sourcePoint" />
            <mxPoint x="970" y="530" as="targetPoint" />
            <Array as="points">
              <mxPoint x="820" y="530" />
            </Array>
          </mxGeometry>
        </mxCell>
        <mxCell id="sOwrhF51wG5BLlXzD2gl-41" value="" style="endArrow=classic;html=1;rounded=0;entryX=0.75;entryY=0;entryDx=0;entryDy=0;fillColor=#ffe6cc;strokeColor=#d79b00;strokeWidth=2;" edge="1" parent="1" target="sOwrhF51wG5BLlXzD2gl-23">
          <mxGeometry width="50" height="50" relative="1" as="geometry">
            <mxPoint x="1190" y="530" as="sourcePoint" />
            <mxPoint x="1270" y="600" as="targetPoint" />
          </mxGeometry>
        </mxCell>
        <mxCell id="sOwrhF51wG5BLlXzD2gl-42" value="" style="endArrow=classic;html=1;rounded=0;fillColor=#d5e8d4;strokeColor=#82b366;entryX=0.9;entryY=0;entryDx=0;entryDy=0;entryPerimeter=0;strokeWidth=2;" edge="1" parent="1" target="sOwrhF51wG5BLlXzD2gl-23">
          <mxGeometry width="50" height="50" relative="1" as="geometry">
            <mxPoint x="1190" y="530.5" as="sourcePoint" />
            <mxPoint x="1220" y="569.5" as="targetPoint" />
            <Array as="points">
              <mxPoint x="1200" y="530.5" />
              <mxPoint x="1210" y="530.5" />
              <mxPoint x="1220" y="530.5" />
            </Array>
          </mxGeometry>
        </mxCell>
        <mxCell id="sOwrhF51wG5BLlXzD2gl-43" value="0.9" style="text;html=1;align=center;verticalAlign=middle;resizable=0;points=[];autosize=1;strokeColor=none;fillColor=none;" vertex="1" parent="1">
          <mxGeometry x="1201" y="530" width="40" height="30" as="geometry" />
        </mxCell>
        <mxCell id="sOwrhF51wG5BLlXzD2gl-44" value="0.07" style="text;html=1;align=center;verticalAlign=middle;resizable=0;points=[];autosize=1;strokeColor=none;fillColor=none;" vertex="1" parent="1">
          <mxGeometry x="1161" y="530" width="50" height="30" as="geometry" />
        </mxCell>
        <mxCell id="sOwrhF51wG5BLlXzD2gl-45" value="0.6" style="text;html=1;align=center;verticalAlign=middle;resizable=0;points=[];autosize=1;strokeColor=none;fillColor=none;" vertex="1" parent="1">
          <mxGeometry x="1150" y="555" width="40" height="30" as="geometry" />
        </mxCell>
        <mxCell id="sOwrhF51wG5BLlXzD2gl-47" value="0.3" style="text;html=1;align=center;verticalAlign=middle;resizable=0;points=[];autosize=1;strokeColor=none;fillColor=none;" vertex="1" parent="1">
          <mxGeometry x="1121" y="555" width="40" height="30" as="geometry" />
        </mxCell>
        <mxCell id="sOwrhF51wG5BLlXzD2gl-48" value="0.1" style="text;html=1;align=center;verticalAlign=middle;resizable=0;points=[];autosize=1;strokeColor=none;fillColor=none;" vertex="1" parent="1">
          <mxGeometry x="990" y="540" width="40" height="30" as="geometry" />
        </mxCell>
        <mxCell id="sOwrhF51wG5BLlXzD2gl-49" value="0.03" style="text;html=1;align=center;verticalAlign=middle;resizable=0;points=[];autosize=1;strokeColor=none;fillColor=none;" vertex="1" parent="1">
          <mxGeometry x="1000" y="510" width="50" height="30" as="geometry" />
        </mxCell>
        <mxCell id="sOwrhF51wG5BLlXzD2gl-50" value="0.3" style="text;html=1;align=center;verticalAlign=middle;resizable=0;points=[];autosize=1;strokeColor=none;fillColor=none;" vertex="1" parent="1">
          <mxGeometry x="980" y="560" width="40" height="30" as="geometry" />
        </mxCell>
        <mxCell id="sOwrhF51wG5BLlXzD2gl-51" value="0.4" style="text;html=1;align=center;verticalAlign=middle;resizable=0;points=[];autosize=1;strokeColor=none;fillColor=none;" vertex="1" parent="1">
          <mxGeometry x="1070" y="580" width="40" height="30" as="geometry" />
        </mxCell>
        <mxCell id="sOwrhF51wG5BLlXzD2gl-53" value="0.3" style="text;html=1;align=center;verticalAlign=middle;resizable=0;points=[];autosize=1;strokeColor=none;fillColor=none;" vertex="1" parent="1">
          <mxGeometry x="1100" y="580" width="40" height="30" as="geometry" />
        </mxCell>
        <mxCell id="sOwrhF51wG5BLlXzD2gl-57" value="" style="edgeStyle=orthogonalEdgeStyle;rounded=0;orthogonalLoop=1;jettySize=auto;html=1;strokeWidth=2;fillColor=#ffe6cc;strokeColor=#d79b00;" edge="1" parent="1">
          <mxGeometry relative="1" as="geometry">
            <mxPoint x="870" y="750" as="sourcePoint" />
            <mxPoint x="870" y="800" as="targetPoint" />
          </mxGeometry>
        </mxCell>
        <mxCell id="sOwrhF51wG5BLlXzD2gl-59" style="edgeStyle=orthogonalEdgeStyle;rounded=0;orthogonalLoop=1;jettySize=auto;html=1;fillColor=#d5e8d4;strokeColor=#82b366;strokeWidth=2;" edge="1" parent="1">
          <mxGeometry relative="1" as="geometry">
            <mxPoint x="1040" y="649.98" as="targetPoint" />
            <mxPoint x="1000" y="650" as="sourcePoint" />
            <Array as="points">
              <mxPoint x="1030" y="649.98" />
              <mxPoint x="1030" y="649.98" />
            </Array>
          </mxGeometry>
        </mxCell>
        <mxCell id="sOwrhF51wG5BLlXzD2gl-60" value="0.5" style="text;html=1;align=center;verticalAlign=middle;resizable=0;points=[];autosize=1;strokeColor=none;fillColor=none;" vertex="1" parent="1">
          <mxGeometry x="850" y="710" width="40" height="30" as="geometry" />
        </mxCell>
        <mxCell id="sOwrhF51wG5BLlXzD2gl-61" value="0.5" style="text;html=1;align=center;verticalAlign=middle;resizable=0;points=[];autosize=1;strokeColor=none;fillColor=none;" vertex="1" parent="1">
          <mxGeometry x="965" y="630" width="40" height="30" as="geometry" />
        </mxCell>
        <mxCell id="sOwrhF51wG5BLlXzD2gl-67" value="" style="endArrow=classic;html=1;rounded=0;entryX=0.75;entryY=0;entryDx=0;entryDy=0;fillColor=#d5e8d4;strokeColor=#82b366;strokeWidth=2;" edge="1" parent="1" target="sOwrhF51wG5BLlXzD2gl-24">
          <mxGeometry width="50" height="50" relative="1" as="geometry">
            <mxPoint x="1191" y="750" as="sourcePoint" />
            <mxPoint x="1200" y="760" as="targetPoint" />
          </mxGeometry>
        </mxCell>
        <mxCell id="sOwrhF51wG5BLlXzD2gl-68" value="1" style="text;html=1;align=center;verticalAlign=middle;resizable=0;points=[];autosize=1;strokeColor=none;fillColor=none;" vertex="1" parent="1">
          <mxGeometry x="1126" y="730" width="30" height="30" as="geometry" />
        </mxCell>
        <mxCell id="sOwrhF51wG5BLlXzD2gl-69" value="0.7" style="text;html=1;align=center;verticalAlign=middle;resizable=0;points=[];autosize=1;strokeColor=none;fillColor=none;" vertex="1" parent="1">
          <mxGeometry x="1171" y="710" width="40" height="30" as="geometry" />
        </mxCell>
        <mxCell id="sOwrhF51wG5BLlXzD2gl-70" value="0.3" style="text;html=1;align=center;verticalAlign=middle;resizable=0;points=[];autosize=1;strokeColor=none;fillColor=none;" vertex="1" parent="1">
          <mxGeometry x="1020" y="730" width="40" height="30" as="geometry" />
        </mxCell>
      </root>
    </mxGraphModel>
  </diagram>
</mxfile>
